<svg width="12" height="19" viewBox="0 0 12 19" fill="none" xmlns="http://www.w3.org/2000/svg">
<g clip-path="url(#clip0)">
<path d="M10.9883 0.302598L6.07026 4.77098H4.29977C1.91101 4.77098 0 6.68199 0 9.07075C0 11.4595 1.91101 13.3705 4.29977 13.3705H6.07026L10.9883 17.8389C11.3817 18.2042 12 17.9232 12 17.3893V12.6117V5.52976V0.752247C12 0.218289 11.3817 -0.0627418 10.9883 0.302598ZM9.55504 10.4478C9.83607 10.7288 9.83607 11.1785 9.55504 11.4314C9.41452 11.5719 9.2459 11.6281 9.04918 11.6281C8.85246 11.6281 8.68384 11.5719 8.54333 11.4314L7.16628 10.0544L5.78923 11.4314C5.64871 11.5719 5.48009 11.6281 5.28337 11.6281C5.08665 11.6281 4.91803 11.5719 4.77752 11.4314C4.49649 11.1504 4.49649 10.7007 4.77752 10.4478L6.15457 9.07075L4.77752 7.6937C4.49649 7.41267 4.49649 6.96302 4.77752 6.71009C5.05855 6.45716 5.5082 6.42906 5.76112 6.71009L7.13817 8.08714L8.51522 6.71009C8.79625 6.42906 9.2459 6.42906 9.49883 6.71009C9.75176 6.99112 9.77986 7.44077 9.49883 7.6937L8.12178 9.07075L9.55504 10.4478Z" fill="black"/>
</g>
<defs>
<clipPath id="clip0">
<rect width="12" height="17.8735" fill="white" transform="translate(0 0.133301)"/>
</clipPath>
</defs>
</svg>
